<?xml version="1.0" encoding="UTF-8"?>
<svg id="OBJECTS" xmlns="http://www.w3.org/2000/svg" viewBox="0 0 759.06 197.91">
  <defs>
    <style>
      .cls-1 {
        fill: #fff;
      }

      .cls-2, .cls-3 {
        fill: #512b20;
      }

      .cls-4 {
        letter-spacing: 0em;
      }

      .cls-5 {
        letter-spacing: 0em;
      }

      .cls-3 {
        font-family: Montserrat-Black, Montserrat;
        font-size: 60.43px;
        font-weight: 800;
      }

      .cls-6 {
        letter-spacing: 0em;
      }

      .cls-7 {
        letter-spacing: -.01em;
      }

      .cls-8 {
        letter-spacing: 0em;
      }

      .cls-9 {
        font-family: Montserrat-Bold, Montserrat;
        font-size: 40.92px;
        font-weight: 700;
      }

      .cls-9, .cls-10 {
        fill: #ffb81a;
      }
    </style>
  </defs>
  <text class="cls-3" transform="translate(243.06 102.14)"><tspan class="cls-5" x="0" y="0">F</tspan><tspan x="38.31" y="0">urnitu</tspan><tspan class="cls-6" x="240.13" y="0">r</tspan><tspan x="267.38" y="0">eHouse</tspan></text>
  <text class="cls-9" transform="translate(246.38 142.46)"><tspan class="cls-7" x="0" y="0">F</tspan><tspan x="25.57" y="0">u</tspan><tspan class="cls-4" x="53.68" y="0">r</tspan><tspan x="71.15" y="0">nitu</tspan><tspan class="cls-8" x="157.65" y="0">r</tspan><tspan x="174.92" y="0">e Of </tspan><tspan class="cls-7" x="274.26" y="0">F</tspan><tspan x="299.84" y="0">utu</tspan><tspan class="cls-8" x="373.85" y="0">r</tspan><tspan x="391.12" y="0">e</tspan></text>
  <circle class="cls-10" cx="129.81" cy="96.93" r="93.82" transform="translate(-30.52 120.18) rotate(-45)"/>
  <path class="cls-2" d="m146.03,102.36h-32.06c6.76,8.08,9.18,16.15,10.38,24.23.29,2.02.47,4.04-.45,6.06-.81,2.02-2.42,4.04-3.75,6.06-2.85,4.04-2.81,8.08-.75,12.11,1,2.02,2.43,4.04,3.51,6.06,1.09,2.02,1.7,4.04,1.68,6.06-.28,4.04-.74,8.08-1.54,12.11-1.04,5.01-2.34,10.01-4.38,15.02,3.66.43,7.38.68,11.15.68s7.73-.27,11.5-.73c-2.03-4.99-3.33-9.99-4.37-14.98-.8-4.04-1.26-8.08-1.54-12.11-.03-2.02.59-4.04,1.68-6.06,1.08-2.02,2.51-4.04,3.51-6.06,2.06-4.04,2.09-8.08-.75-12.11-1.33-2.02-2.94-4.04-3.75-6.06-.92-2.02-.74-4.04-.45-6.06,1.2-8.08,3.62-16.15,10.38-24.23Z"/>
  <polygon class="cls-2" points="185.61 102.99 74.38 102.99 108.09 32.87 151.91 32.87 185.61 102.99"/>
  <g>
    <rect class="cls-2" x="168" y="96.93" width="3.03" height="31.33"/>
    <path class="cls-2" d="m169.52,138.52c-3.25,0-5.89-2.64-5.89-5.89s2.64-5.89,5.89-5.89,5.89,2.64,5.89,5.89-2.64,5.89-5.89,5.89Zm0-8.75c-1.58,0-2.86,1.29-2.86,2.86s1.29,2.86,2.86,2.86,2.86-1.28,2.86-2.86-1.29-2.86-2.86-2.86Z"/>
  </g>
  <polygon class="cls-10" points="97.06 84.24 120.24 30.14 118.85 29.54 95.41 84.24 97.06 84.24"/>
  <path class="cls-1" d="m86.1,123.96l1.63,6.71c.89,3.66,3.74,6.51,7.4,7.4l6.71,1.63-6.71,1.63c-3.66.89-6.51,3.74-7.4,7.4l-1.63,6.71-1.63-6.71c-.89-3.66-3.74-6.51-7.4-7.4l-6.71-1.63,6.71-1.63c3.66-.89,6.51-3.74,7.4-7.4l1.63-6.71Z"/>
  <path class="cls-1" d="m54.63,108.05l.92,3.77c.5,2.05,2.1,3.66,4.16,4.16l3.77.92-3.77.92c-2.05.5-3.66,2.1-4.16,4.16l-.92,3.77-.92-3.77c-.5-2.05-2.1-3.66-4.16-4.16l-3.77-.92,3.77-.92c2.05-.5,3.66-2.1,4.16-4.16l.92-3.77Z"/>
  <path class="cls-1" d="m190.18,50.25l.92,3.77c.5,2.05,2.1,3.66,4.16,4.16l3.77.92-3.77.92c-2.05.5-3.66,2.1-4.16,4.16l-.92,3.77-.92-3.77c-.5-2.05-2.1-3.66-4.16-4.16l-3.77-.92,3.77-.92c2.05-.5,3.66-2.1,4.16-4.16l.92-3.77Z"/>
</svg>